<?xml version="1.0" standalone="no"?>
<!DOCTYPE svg PUBLIC "-//W3C//DTD SVG 20010904//EN"
 "http://www.w3.org/TR/2001/REC-SVG-20010904/DTD/svg10.dtd">
<svg version="1.0" xmlns="http://www.w3.org/2000/svg"
 width="500.000000pt" height="500.000000pt" viewBox="0 0 500.000000 500.000000"
 preserveAspectRatio="xMidYMid meet">

<g transform="translate(0.000000,500.000000) scale(0.100000,-0.100000)"
fill="#000000" stroke="none">
<path d="M740 2600 l0 -1660 1660 0 1660 0 0 1660 0 1660 -1660 0 -1660 0 0
-1660z m3220 0 l0 -1560 -1560 0 -1560 0 0 1560 0 1560 1560 0 1560 0 0 -1560z"/>
<path d="M1560 3633 c-114 -19 -259 -104 -329 -193 -176 -222 -159 -525 41
-724 147 -147 329 -195 528 -139 190 52 344 217 383 411 l13 63 13 -63 c62
-309 392 -504 690 -408 218 70 366 256 379 478 15 272 -151 500 -413 567 -288
73 -598 -125 -658 -422 l-13 -62 -12 67 c-38 198 -204 370 -403 417 -60 14
-162 18 -219 8z m196 -326 c147 -76 173 -277 50 -385 -147 -129 -386 -22 -386
173 0 106 64 192 170 226 36 12 132 4 166 -14z m1079 4 c86 -39 134 -117 135
-217 1 -228 -300 -315 -427 -123 -55 83 -41 216 30 289 66 68 178 90 262 51z"/>
<path d="M3378 2522 l-188 -107 3 -289 2 -289 185 -108 c102 -60 195 -109 208
-109 35 0 77 25 90 55 9 19 12 143 12 450 0 307 -3 431 -12 450 -13 30 -55 55
-90 55 -13 0 -107 -49 -210 -108z"/>
<path d="M2005 2584 c-11 -9 -45 -28 -76 -44 -164 -84 -414 -81 -566 6 -23 13
-44 24 -47 24 -11 0 -7 -940 4 -961 27 -50 9 -49 883 -49 570 0 824 3 846 11
61 22 61 19 61 542 l0 474 -85 -42 c-198 -99 -431 -92 -605 19 l-55 35 -170 0
c-138 0 -174 -3 -190 -15z"/>
</g>
</svg>
